<svg data-v-423bf9ae="" xmlns="http://www.w3.org/2000/svg" viewBox="0 0 587 90" class="iconLeftSlogan"><!----><!----><!----><g data-v-423bf9ae="" id="bd4e047c-03bc-4ebc-8435-ce94e783d21e" fill="black" transform="matrix(5.32859669452762,0,0,5.32859669452762,107.54884908745464,-26.32326749903404)"><path d="M0.62 7.38Q0.62 6.23 1.36 5.59Q2.10 4.94 3.46 4.94L3.46 4.94Q4.66 4.94 5.78 5.32L5.78 5.32L5.64 7.20L5.05 7.20L4.75 5.87Q4.55 5.81 4.19 5.77Q3.84 5.73 3.57 5.73L3.57 5.73Q2.79 5.73 2.32 6.06Q1.86 6.40 1.86 7.07L1.86 7.07Q1.86 7.62 2.18 7.96Q2.49 8.30 3.14 8.55L3.14 8.55L4.56 9.14Q5.35 9.45 5.71 9.98Q6.08 10.51 6.08 11.37L6.08 11.37Q6.08 12.54 5.27 13.20Q4.47 13.86 2.93 13.86L2.93 13.86Q2.34 13.86 1.67 13.75Q0.99 13.64 0.46 13.43L0.46 13.43L0.66 11.68L1.26 11.68L1.51 12.88Q2.23 13.08 2.97 13.08L2.97 13.08Q3.79 13.08 4.28 12.72Q4.76 12.36 4.76 11.75L4.76 11.75Q4.76 11.20 4.48 10.84Q4.20 10.47 3.54 10.21L3.54 10.21L2.07 9.62Q1.41 9.37 1.02 8.82Q0.62 8.27 0.62 7.38L0.62 7.38ZM10.22 13.87Q8.57 13.87 7.78 12.94Q7 12.01 7 10.32L7 10.32Q7 8.51 7.80 7.61Q8.61 6.71 10.07 6.71L10.07 6.71Q11.45 6.71 12.10 7.35Q12.75 7.99 12.75 9.37L12.75 9.37Q12.75 9.73 12.71 10.14L12.71 10.14L8.51 10.14L8.51 10.54Q8.51 11.77 9.04 12.40Q9.56 13.03 10.53 13.03L10.53 13.03Q11.42 13.03 12.57 12.71L12.57 12.71L12.67 13.20Q12.11 13.55 11.54 13.71Q10.96 13.87 10.22 13.87L10.22 13.87ZM8.54 9.56L11.30 9.41L11.30 9.10Q11.30 8.29 11.03 7.89Q10.77 7.49 10.15 7.49L10.15 7.49Q9.31 7.49 8.95 7.97Q8.60 8.46 8.54 9.56L8.54 9.56ZM16.74 13.86Q15.18 13.86 14.42 12.87Q13.66 11.89 13.66 10.32L13.66 10.32Q13.66 8.69 14.41 7.70Q15.16 6.71 16.74 6.71L16.74 6.71Q17.40 6.71 17.93 6.81Q18.45 6.92 19.05 7.15L19.05 7.15L18.79 8.95L18.23 8.95L17.91 7.67Q17.36 7.49 16.83 7.49L16.83 7.49Q15.89 7.49 15.53 8.20Q15.18 8.92 15.18 10.28L15.18 10.28Q15.18 11.68 15.56 12.35Q15.95 13.02 16.91 13.02L16.91 13.02Q17.96 13.02 19.00 12.70L19.00 12.70L19.08 13.20Q18.51 13.52 17.95 13.69Q17.39 13.86 16.74 13.86L16.74 13.86ZM23.88 7.70Q23.17 7.70 22.55 7.95L22.55 7.95L22.55 12.91L24.15 13.22L24.15 13.72L19.96 13.72L19.96 13.23L21.17 12.89L21.17 7.83L19.96 7.67L19.96 7.24L21.99 6.71L22.53 6.71L22.53 7.35Q23.00 7.04 23.58 6.86Q24.16 6.68 24.67 6.68L24.67 6.68Q24.93 6.68 25.05 6.69L25.05 6.69L24.81 8.86L24.18 8.86L23.88 7.70ZM28.94 13.87Q27.29 13.87 26.50 12.94Q25.72 12.01 25.72 10.32L25.72 10.32Q25.72 8.51 26.52 7.61Q27.33 6.71 28.78 6.71L28.78 6.71Q30.17 6.71 30.82 7.35Q31.47 7.99 31.47 9.37L31.47 9.37Q31.47 9.73 31.43 10.14L31.43 10.14L27.23 10.14L27.23 10.54Q27.23 11.77 27.75 12.40Q28.28 13.03 29.25 13.03L29.25 13.03Q30.14 13.03 31.29 12.71L31.29 12.71L31.39 13.20Q30.83 13.55 30.25 13.71Q29.68 13.87 28.94 13.87L28.94 13.87ZM27.26 9.56L30.02 9.41L30.02 9.10Q30.02 8.29 29.75 7.89Q29.48 7.49 28.87 7.49L28.87 7.49Q28.03 7.49 27.67 7.97Q27.31 8.46 27.26 9.56L27.26 9.56ZM36.44 13.55Q36.04 13.66 35.36 13.76Q34.68 13.85 34.31 13.85L34.31 13.85Q33.18 13.85 33.18 12.71L33.18 12.71L33.18 7.64L32.16 7.64L32.16 7.10L33.31 6.69L33.92 5.29L34.55 5.29L34.55 6.85L36.64 6.85L36.64 7.76L34.55 7.64L34.55 12.80L36.44 13.08L36.44 13.55ZM43.01 13.20L43.01 13.72L39.80 13.72L39.80 13.20L40.95 12.91L41.19 5.95L40.05 5.67L40.05 5.15L42.74 5.15L45.11 11.91L47.36 5.15L50.15 5.15L50.15 5.67L48.90 5.96L49.18 12.91L50.44 13.20L50.44 13.72L46.62 13.72L46.62 13.20L47.85 12.91L47.63 6.92L45.28 13.72L44.48 13.86L41.99 6.90L41.78 12.91L43.01 13.20ZM54.40 13.87Q52.75 13.87 51.97 12.94Q51.18 12.01 51.18 10.32L51.18 10.32Q51.18 8.51 51.99 7.61Q52.79 6.71 54.25 6.71L54.25 6.71Q55.64 6.71 56.29 7.35Q56.94 7.99 56.94 9.37L56.94 9.37Q56.94 9.73 56.90 10.14L56.90 10.14L52.70 10.14L52.70 10.54Q52.70 11.77 53.22 12.40Q53.75 13.03 54.71 13.03L54.71 13.03Q55.61 13.03 56.76 12.71L56.76 12.71L56.85 13.20Q56.29 13.55 55.72 13.71Q55.15 13.87 54.40 13.87L54.40 13.87ZM52.72 9.56L55.48 9.41L55.48 9.10Q55.48 8.29 55.22 7.89Q54.95 7.49 54.33 7.49L54.33 7.49Q53.49 7.49 53.14 7.97Q52.78 8.46 52.72 9.56L52.72 9.56ZM60.51 7.49Q59.88 7.49 59.53 7.74Q59.18 7.98 59.18 8.41L59.18 8.41Q59.18 8.82 59.37 9.04Q59.57 9.25 60.07 9.44L60.07 9.44L61.26 9.84Q62.12 10.14 62.45 10.56Q62.78 10.98 62.78 11.72L62.78 11.72Q62.78 12.71 62.08 13.29Q61.39 13.86 60.09 13.86L60.09 13.86Q59.58 13.86 58.99 13.76Q58.39 13.66 57.93 13.50L57.93 13.50L58.13 11.77L58.67 11.77L58.97 12.94Q59.53 13.10 60.12 13.10L60.12 13.10Q61.56 13.10 61.56 11.97L61.56 11.97Q61.56 11.63 61.33 11.42Q61.11 11.20 60.51 10.99L60.51 10.99L59.43 10.63Q58.69 10.35 58.35 9.91Q58.02 9.48 58.02 8.76L58.02 8.76Q58.02 7.78 58.65 7.25Q59.28 6.71 60.54 6.71L60.54 6.71Q61.53 6.71 62.51 7.14L62.51 7.14L62.30 8.72L61.77 8.72L61.47 7.70Q61.29 7.62 61.02 7.55Q60.75 7.49 60.51 7.49L60.51 7.49ZM66.51 7.49Q65.88 7.49 65.53 7.74Q65.18 7.98 65.18 8.41L65.18 8.41Q65.18 8.82 65.38 9.04Q65.58 9.25 66.08 9.44L66.08 9.44L67.27 9.84Q68.12 10.14 68.45 10.56Q68.78 10.98 68.78 11.72L68.78 11.72Q68.78 12.71 68.09 13.29Q67.40 13.86 66.09 13.86L66.09 13.86Q65.59 13.86 65.00 13.76Q64.40 13.66 63.94 13.50L63.94 13.50L64.13 11.77L64.68 11.77L64.97 12.94Q65.53 13.10 66.12 13.10L66.12 13.10Q67.56 13.10 67.56 11.97L67.56 11.97Q67.56 11.63 67.34 11.42Q67.12 11.20 66.51 10.99L66.51 10.99L65.44 10.63Q64.69 10.35 64.36 9.91Q64.02 9.48 64.02 8.76L64.02 8.76Q64.02 7.78 64.65 7.25Q65.28 6.71 66.54 6.71L66.54 6.71Q67.54 6.71 68.52 7.14L68.52 7.14L68.31 8.72L67.77 8.72L67.48 7.70Q67.30 7.62 67.03 7.55Q66.75 7.49 66.51 7.49L66.51 7.49ZM72.60 7.56Q71.95 7.56 71.33 7.76L71.33 7.76L71.01 8.95L70.46 8.95L70.22 7.22Q71.62 6.71 72.93 6.71L72.93 6.71Q73.99 6.71 74.55 7.06Q75.11 7.42 75.11 8.30L75.11 8.30L75.11 12.80L76.31 13.09L76.31 13.55Q75.53 13.78 74.82 13.78L74.82 13.78Q74.42 13.78 74.13 13.58Q73.84 13.38 73.75 13.02L73.75 13.02Q73.18 13.44 72.62 13.66Q72.06 13.87 71.44 13.87L71.44 13.87Q70.71 13.87 70.30 13.37Q69.89 12.87 69.89 12.15L69.89 12.15Q69.89 11.48 70.27 10.92Q70.66 10.36 71.67 10.18L71.67 10.18L73.72 9.80L73.72 8.68Q73.72 8.11 73.48 7.83Q73.23 7.56 72.60 7.56L72.60 7.56ZM72.45 10.70Q71.30 10.92 71.30 11.94L71.30 11.94Q71.30 12.92 72.24 12.92L72.24 12.92Q72.84 12.92 73.72 12.45L73.72 12.45L73.72 10.47L72.45 10.70ZM79.52 16.20Q77.99 16.20 77.46 15.83Q76.93 15.46 76.93 14.84L76.93 14.84Q76.93 14.04 77.80 13.37L77.80 13.37Q77.56 13.27 77.44 13.05Q77.32 12.84 77.32 12.57L77.32 12.57Q77.32 12.25 77.56 11.90Q77.80 11.55 78.22 11.12L78.22 11.12Q77.31 10.51 77.31 9.07L77.31 9.07Q77.31 8.43 77.60 7.89Q77.90 7.35 78.49 7.02Q79.09 6.69 79.93 6.69L79.93 6.69Q80.79 6.69 81.51 7.07L81.51 7.07L83.47 6.54L83.47 7.59L81.97 7.59Q82.25 7.85 82.40 8.26Q82.54 8.67 82.54 9.07L82.54 9.07Q82.54 10.09 81.89 10.77Q81.23 11.44 79.81 11.44L79.81 11.44Q79.49 11.44 79.19 11.40Q78.89 11.35 78.83 11.33L78.83 11.33Q78.53 11.79 78.53 12.01L78.53 12.01Q78.53 12.18 78.64 12.32Q78.75 12.46 78.96 12.46L78.96 12.46L81.10 12.46Q82.17 12.46 82.72 12.77Q83.27 13.08 83.27 13.92L83.27 13.92Q83.27 14.49 82.87 15.02Q82.46 15.54 81.61 15.87Q80.77 16.20 79.52 16.20L79.52 16.20ZM79.95 10.71Q80.63 10.71 80.90 10.29Q81.17 9.87 81.17 9.07L81.17 9.07Q81.17 7.42 79.91 7.42L79.91 7.42Q79.25 7.42 78.98 7.85Q78.71 8.29 78.71 9.07L78.71 9.07Q78.71 9.87 78.99 10.29Q79.28 10.71 79.95 10.71L79.95 10.71ZM79.60 15.43Q80.86 15.43 81.45 15.08Q82.04 14.73 82.04 14.11L82.04 14.11Q82.04 13.72 81.82 13.59Q81.61 13.47 81.10 13.47L81.10 13.47L78.61 13.47Q78.18 14 78.18 14.53L78.18 14.53Q78.18 15.01 78.48 15.22Q78.79 15.43 79.60 15.43L79.60 15.43ZM87.33 13.87Q85.68 13.87 84.90 12.94Q84.11 12.01 84.11 10.32L84.11 10.32Q84.11 8.51 84.92 7.61Q85.72 6.71 87.18 6.71L87.18 6.71Q88.56 6.71 89.21 7.35Q89.87 7.99 89.87 9.37L89.87 9.37Q89.87 9.73 89.82 10.14L89.82 10.14L85.62 10.14L85.62 10.54Q85.62 11.77 86.15 12.40Q86.67 13.03 87.64 13.03L87.64 13.03Q88.54 13.03 89.68 12.71L89.68 12.71L89.78 13.20Q89.22 13.55 88.65 13.71Q88.07 13.87 87.33 13.87L87.33 13.87ZM85.65 9.56L88.41 9.41L88.41 9.10Q88.41 8.29 88.14 7.89Q87.88 7.49 87.26 7.49L87.26 7.49Q86.42 7.49 86.06 7.97Q85.71 8.46 85.65 9.56L85.65 9.56Z"></path></g><!----><g data-v-423bf9ae="" id="874e6e7c-2343-4ee5-885e-56caf5590ac9" transform="matrix(2.8125,0,0,2.8125,0,0)" stroke="none" fill="black"><path d="M15.965 16.258l.707-.707 10.39 10.39-.707.707z"></path><path d="M4.935 26.357L26.018 5.274l.707.707L5.642 27.065z"></path><path d="M31 1v4.194h-4.194V1H31m1-1h-6.194v6.194H32V0zM31 26.806V31h-4.194v-4.194H31m1-1h-6.194V32H32v-6.194zM5.194 26.806V31H1v-4.194h4.194m1-1H0V32h6.194v-6.194z"></path></g><!----><g data-v-423bf9ae="" id="96424ddc-bca5-42a1-a785-73582797738d" fill="black" transform="matrix(0.9361493988902314,0,0,0.9361493988902314,109.04512854123547,56.12434004675974)"><path d="M4.31 13.94C6.23 13.94 7.45 12.84 7.45 11.40C7.45 10.00 6.48 9.45 5.39 8.95L4.03 8.36C3.29 8.02 2.34 7.64 2.34 6.65C2.34 5.70 3.15 5.11 4.37 5.11C5.33 5.11 6.08 5.47 6.66 6.02L7.13 5.47C6.51 4.84 5.53 4.37 4.37 4.37C2.70 4.37 1.48 5.33 1.48 6.71C1.48 8.05 2.60 8.68 3.49 9.04L4.86 9.63C5.82 10.07 6.61 10.37 6.61 11.47C6.61 12.50 5.74 13.20 4.31 13.20C3.22 13.20 2.23 12.71 1.54 11.97L1.02 12.56C1.79 13.38 2.93 13.94 4.31 13.94ZM19.71 13.94C21.63 13.94 22.85 12.84 22.85 11.40C22.85 10.00 21.88 9.45 20.79 8.95L19.43 8.36C18.69 8.02 17.74 7.64 17.74 6.65C17.74 5.70 18.55 5.11 19.77 5.11C20.73 5.11 21.48 5.47 22.06 6.02L22.53 5.47C21.91 4.84 20.93 4.37 19.77 4.37C18.10 4.37 16.88 5.33 16.88 6.71C16.88 8.05 18.00 8.68 18.89 9.04L20.26 9.63C21.22 10.07 22.01 10.37 22.01 11.47C22.01 12.50 21.14 13.20 19.71 13.20C18.62 13.20 17.63 12.71 16.94 11.97L16.42 12.56C17.19 13.38 18.33 13.94 19.71 13.94ZM31.99 13.78L32.83 13.78L32.83 9.24L37.17 9.24L37.17 13.78L38.01 13.78L38.01 4.54L37.17 4.54L37.17 8.53L32.83 8.53L32.83 4.54L31.99 4.54ZM49.88 10.26L50.96 10.26L51.02 4.40L49.83 4.40ZM50.40 13.94C50.88 13.94 51.28 13.58 51.28 12.98C51.28 12.38 50.88 12.04 50.40 12.04C49.92 12.04 49.52 12.38 49.52 12.98C49.52 13.58 49.92 13.94 50.40 13.94ZM78.44 13.78L83.96 13.78L83.96 13.06L81.62 13.06L81.62 5.24L83.96 5.24L83.96 4.54L78.44 4.54L78.44 5.24L80.78 5.24L80.78 13.06L78.44 13.06ZM96.18 13.78L97.02 13.78L97.02 5.24L100.16 5.24L100.16 4.54L93.04 4.54L93.04 5.24L96.18 5.24ZM111.69 8.11L112.31 8.11L112.60 5.36L112.62 4.14L111.38 4.14L111.40 5.36ZM127.51 13.94C129.43 13.94 130.65 12.84 130.65 11.40C130.65 10.00 129.68 9.45 128.59 8.95L127.23 8.36C126.49 8.02 125.54 7.64 125.54 6.65C125.54 5.70 126.35 5.11 127.57 5.11C128.53 5.11 129.28 5.47 129.86 6.02L130.33 5.47C129.71 4.84 128.73 4.37 127.57 4.37C125.90 4.37 124.68 5.33 124.68 6.71C124.68 8.05 125.80 8.68 126.69 9.04L128.06 9.63C129.02 10.07 129.81 10.37 129.81 11.47C129.81 12.50 128.94 13.20 127.51 13.20C126.42 13.20 125.43 12.71 124.74 11.97L124.22 12.56C124.99 13.38 126.13 13.94 127.51 13.94ZM158.20 13.94C160.23 13.94 161.67 12.07 161.67 9.11C161.67 6.20 160.23 4.37 158.20 4.37C156.17 4.37 154.73 6.19 154.73 9.11C154.73 12.07 156.17 13.94 158.20 13.94ZM158.20 13.20C156.63 13.20 155.58 11.59 155.58 9.11C155.58 6.65 156.63 5.11 158.20 5.11C159.77 5.11 160.82 6.65 160.82 9.11C160.82 11.59 159.77 13.20 158.20 13.20ZM173.61 13.94C175.24 13.94 176.61 13.05 176.61 10.32L176.61 4.54L175.80 4.54L175.80 10.26C175.80 12.49 174.80 13.20 173.61 13.20C172.41 13.20 171.43 12.49 171.43 10.26L171.43 4.54L170.59 4.54L170.59 10.32C170.59 13.05 171.96 13.94 173.61 13.94ZM186.35 13.78L187.18 13.78L187.18 9.66L189.03 9.66L191.42 13.78L192.37 13.78L189.94 9.62C191.28 9.34 192.16 8.50 192.16 7.01C192.16 5.21 190.90 4.54 189.07 4.54L186.35 4.54ZM187.18 8.96L187.18 5.21L188.90 5.21C190.46 5.21 191.32 5.70 191.32 7.01C191.32 8.33 190.46 8.96 188.90 8.96ZM217.62 13.78L223.16 13.78L223.16 13.06L218.43 13.06L218.43 4.54L217.62 4.54ZM232.44 13.78L237.96 13.78L237.96 13.06L235.62 13.06L235.62 5.24L237.96 5.24L237.96 4.54L232.44 4.54L232.44 5.24L234.78 5.24L234.78 13.06L232.44 13.06ZM250.18 13.78L251.02 13.78L251.02 5.24L254.16 5.24L254.16 4.54L247.04 4.54L247.04 5.24L250.18 5.24ZM265.58 13.78L266.42 13.78L266.42 5.24L269.56 5.24L269.56 4.54L262.44 4.54L262.44 5.24L265.58 5.24ZM279.22 13.78L284.76 13.78L284.76 13.06L280.03 13.06L280.03 4.54L279.22 4.54ZM294.32 13.78L300.01 13.78L300.01 13.06L295.16 13.06L295.16 9.25L299.12 9.25L299.12 8.53L295.16 8.53L295.16 5.24L299.87 5.24L299.87 4.54L294.32 4.54ZM327.71 13.94C329.63 13.94 330.85 12.84 330.85 11.40C330.85 10.00 329.88 9.45 328.79 8.95L327.43 8.36C326.69 8.02 325.74 7.64 325.74 6.65C325.74 5.70 326.55 5.11 327.77 5.11C328.73 5.11 329.48 5.47 330.06 6.02L330.53 5.47C329.91 4.84 328.93 4.37 327.77 4.37C326.10 4.37 324.88 5.33 324.88 6.71C324.88 8.05 326.00 8.68 326.89 9.04L328.26 9.63C329.22 10.07 330.01 10.37 330.01 11.47C330.01 12.50 329.14 13.20 327.71 13.20C326.62 13.20 325.63 12.71 324.94 11.97L324.42 12.56C325.19 13.38 326.33 13.94 327.71 13.94ZM340.52 13.78L346.21 13.78L346.21 13.06L341.36 13.06L341.36 9.25L345.32 9.25L345.32 8.53L341.36 8.53L341.36 5.24L346.07 5.24L346.07 4.54L340.52 4.54ZM359.11 13.94C360.29 13.94 361.16 13.44 361.87 12.63L361.38 12.11C360.74 12.82 360.07 13.20 359.16 13.20C357.25 13.20 356.05 11.61 356.05 9.13C356.05 6.66 357.25 5.11 359.18 5.11C360.00 5.11 360.65 5.47 361.14 6.01L361.62 5.46C361.12 4.89 360.28 4.37 359.18 4.37C356.82 4.37 355.18 6.20 355.18 9.13C355.18 12.11 356.82 13.94 359.11 13.94ZM371.15 13.78L371.98 13.78L371.98 9.66L373.83 9.66L376.22 13.78L377.17 13.78L374.74 9.62C376.08 9.34 376.96 8.50 376.96 7.01C376.96 5.21 375.70 4.54 373.87 4.54L371.15 4.54ZM371.98 8.96L371.98 5.21L373.70 5.21C375.26 5.21 376.12 5.70 376.12 7.01C376.12 8.33 375.26 8.96 373.70 8.96ZM386.72 13.78L392.41 13.78L392.41 13.06L387.56 13.06L387.56 9.25L391.52 9.25L391.52 8.53L387.56 8.53L387.56 5.24L392.27 5.24L392.27 4.54L386.72 4.54ZM404.18 13.78L405.02 13.78L405.02 5.24L408.16 5.24L408.16 4.54L401.04 4.54L401.04 5.24L404.18 5.24Z"></path></g></svg>